<?xml version="1.0" standalone="no"?>
<!DOCTYPE svg PUBLIC "-//W3C//DTD SVG 20010904//EN"
 "http://www.w3.org/TR/2001/REC-SVG-20010904/DTD/svg10.dtd">
<svg version="1.0" xmlns="http://www.w3.org/2000/svg"
 width="4714.000000pt" height="4714.000000pt" viewBox="0 0 4714.000000 4714.000000"
 preserveAspectRatio="xMidYMid meet">

<g transform="translate(0.000000,4714.000000) scale(0.100000,-0.100000)"
fill="#FF2F00" stroke="none">
<path d="M23580 38833 l0 -7116 1002 6 c551 4 1003 8 1004 10 7 7 3346 13568
3342 13573 -21 20 -846 198 -1338 288 -1202 219 -2644 355 -3777 356 l-233 0
0 -7117z"/>
<path d="M17930 45234 c-1387 -366 -2635 -820 -3930 -1429 -325 -153 -821
-407 -817 -419 3 -6 1379 -2630 3059 -5831 l3055 -5820 1133 -3 c904 -2 1131
0 1128 10 -3 7 -756 3061 -1674 6786 -1543 6263 -1670 6772 -1689 6771 -11 0
-130 -30 -265 -65z"/>
<path d="M30928 37562 l-3057 -5827 132 -3 c72 -2 736 0 1474 3 l1343 7 3792
4281 c2086 2354 3796 4286 3801 4293 8 14 -106 117 -453 408 -1030 864 -2118
1622 -3290 2293 -230 132 -672 374 -681 373 -2 -1 -1380 -2623 -3061 -5828z"/>
<path d="M8680 40277 c-25 -23 -151 -139 -280 -257 -907 -831 -1835 -1848
-2606 -2855 -279 -364 -646 -877 -636 -887 4 -4 1467 -1015 3252 -2247 3064
-2115 3248 -2240 3295 -2245 97 -10 4611 -53 4620 -44 4 3 -7584 8571 -7594
8575 -3 1 -26 -17 -51 -40z"/>
<path d="M38764 34032 l-3241 -2237 91 -3 c162 -6 776 18 981 39 980 97 1867
284 2545 536 433 161 790 351 985 524 99 88 158 114 265 114 76 0 92 -3 152
-33 76 -37 130 -92 163 -166 40 -87 40 -140 5 -346 -140 -825 -325 -1502 -516
-1882 -98 -195 -250 -373 -409 -477 -110 -72 -276 -152 -421 -201 l-122 -42
-56 -196 c-30 -107 -54 -197 -53 -198 1 -2 333 123 737 277 404 154 1613 613
2685 1021 1073 407 1953 743 1957 747 13 12 -265 698 -464 1146 -435 977 -963
1962 -1531 2860 -164 259 -495 755 -505 755 -4 0 -1466 -1007 -3248 -2238z"/>
<path d="M6774 32635 c3 -16 19 -111 36 -209 147 -856 355 -1548 550 -1837
102 -149 302 -279 560 -364 47 -16 89 -32 95 -37 5 -4 -29 -8 -77 -8 l-85 0
257 -897 258 -898 991 -3 991 -2 0 -410 0 -410 275 0 275 0 0 -112 c1 -255
-23 -1363 -29 -1369 -3 -3 -175 58 -381 137 -206 79 -376 144 -377 144 -1 0
36 -114 83 -252 46 -139 84 -254 84 -255 0 -2 -493 -3 -1095 -3 l-1095 0 0
-850 0 -850 1375 0 1375 0 0 -72 c0 -192 -221 -12425 -225 -12435 -3 -10 -63
-13 -255 -13 l-250 0 0 -480 0 -480 335 0 335 0 0 -2744 0 -2744 328 -220
c801 -536 1476 -934 2335 -1377 l229 -117 -7 243 c-6 227 -365 20282 -365
20390 l0 49 10280 0 10280 0 0 -49 c0 -108 -359 -20163 -365 -20390 l-7 -243
229 117 c859 443 1534 841 2336 1377 l327 220 0 2744 0 2744 335 0 335 0 0
480 0 480 -250 0 c-192 0 -252 3 -255 13 -4 10 -225 12243 -225 12435 l0 72
905 0 905 0 0 850 0 850 -625 0 c-344 0 -625 1 -625 3 0 1 38 116 84 255 47
138 84 252 83 252 -1 0 -171 -65 -377 -144 -206 -79 -378 -140 -381 -137 -6 6
-30 1114 -29 1369 l0 112 275 0 275 0 0 410 0 410 823 0 824 0 248 868 c136
477 252 874 256 883 4 9 33 21 64 28 99 22 296 92 403 142 180 84 292 171 372
288 195 289 403 981 550 1837 17 98 33 193 36 209 l6 30 -43 -41 c-120 -114
-349 -257 -621 -389 -721 -348 -1710 -596 -2933 -734 -308 -35 -525 -47 -1095
-61 -3897 -92 -20363 -92 -24240 0 -571 14 -787 26 -1095 61 -1223 138 -2212
386 -2933 734 -272 132 -501 275 -621 389 l-43 41 6 -30z m15386 -5520 l0
-1265 -4214 0 -4214 0 84 252 c46 138 83 253 81 254 -1 1 -143 -52 -316 -117
-173 -66 -315 -118 -316 -117 -3 3 -25 1251 -25 1366 l0 72 280 0 280 0 0 410
0 410 4180 0 4180 0 0 -1265z m11200 855 l0 -410 280 0 280 0 0 -72 c0 -115
-22 -1363 -25 -1366 -1 -1 -143 51 -316 117 -173 65 -315 118 -316 117 -2 -1
35 -116 81 -254 l84 -252 -4214 0 -4214 0 0 1265 0 1265 4180 0 4180 0 0 -410z"/>
<path d="M17428 27803 c183 -126 781 -537 1329 -915 l998 -688 744 0 743 0
-69 78 c-139 154 -1093 1234 -1283 1451 -107 122 -211 240 -230 262 l-35 39
-1264 0 -1265 0 332 -227z"/>
<path d="M21243 28018 c3 -7 57 -109 119 -225 62 -117 182 -344 267 -505 85
-161 160 -302 168 -313 11 -16 13 68 13 518 l0 537 -286 0 c-225 0 -285 -3
-281 -12z"/>
<path d="M13880 27220 c-14 -4 -84 -8 -156 -9 l-131 -1 5 -292 c2 -161 5 -294
7 -295 1 -2 51 16 111 39 88 33 122 42 179 42 96 1 181 -31 245 -94 59 -58 85
-108 101 -193 12 -63 8 -109 -17 -194 l-6 -23 1198 0 1199 1 -1020 388 c-1022
389 -1440 549 -1505 575 -90 36 -171 66 -178 65 -4 -1 -18 -5 -32 -9z"/>
<path d="M25917 28023 c-3 -5 -131 -249 -286 -544 l-281 -537 0 -371 0 -371
280 0 279 0 582 658 c320 361 606 682 635 712 64 68 335 371 376 423 l30 37
-806 0 c-442 0 -807 -3 -809 -7z"/>
<path d="M29855 27890 c-110 -77 -238 -165 -284 -197 -45 -32 -120 -85 -165
-118 -46 -33 -510 -355 -1032 -715 l-950 -655 1549 -3 1550 -2 1353 512 c745
282 1353 515 1353 518 0 3 -23 19 -52 35 -29 17 -68 52 -89 80 -65 86 -68 106
-68 412 l0 273 -1482 -1 -1483 0 -200 -139z"/>
<path d="M2524 31193 c-555 -1535 -931 -3075 -1144 -4692 -17 -128 -30 -234
-28 -235 2 -2 1423 -175 3158 -385 1735 -210 3172 -385 3192 -388 l37 -5 3
224 3 224 33 66 c38 77 92 130 171 167 l56 26 897 3 897 3 -15 42 c-9 23 -16
76 -16 119 -1 64 4 86 29 140 51 108 134 174 251 199 80 17 139 5 322 -65 91
-35 166 -63 166 -62 1 0 4 143 7 318 l6 316 -147 4 c-134 3 -152 5 -203 30
-69 32 -129 90 -166 160 l-28 53 -3 287 -3 287 -857 3 -857 3 -56 26 c-68 32
-132 88 -164 143 -13 23 -109 342 -215 716 -106 371 -193 676 -195 678 -2 3
-4983 1893 -5005 1899 -12 3 -41 -67 -126 -304z"/>
<path d="M42390 25845 c-1867 -227 -3429 -416 -3470 -420 -41 -3 -156 -16
-255 -28 l-180 -22 -5 -650 -5 -650 -29 -62 c-33 -73 -112 -152 -183 -186
l-48 -22 -774 -3 -773 -3 6 -107 c3 -59 11 -458 17 -887 6 -429 14 -793 18
-810 l7 -30 180 -22 c98 -12 211 -24 249 -27 39 -4 2002 -241 4364 -527 3280
-399 4295 -519 4301 -509 4 6 10 39 13 73 4 34 20 195 36 357 77 767 111 1451
111 2255 0 850 -36 1541 -125 2395 -30 283 -33 300 -48 299 -7 0 -1540 -187
-3407 -414z"/>
<path d="M21655 23795 c6 -2 433 -54 950 -117 784 -94 932 -114 890 -121 -101
-17 -9262 -1134 -9365 -1142 -81 -6 -400 -44 -429 -51 l-24 -5 6 -227 c4 -125
14 -690 23 -1257 10 -566 20 -1034 24 -1038 4 -4 108 31 231 78 308 119 8976
3406 9327 3537 155 58 282 104 282 103 0 -14 -8626 -16455 -9360 -17840 l-223
-420 12 -725 c6 -399 14 -847 18 -997 l6 -272 206 -95 c1184 -544 2484 -1005
3799 -1345 191 -49 192 -49 197 -28 120 491 5312 21541 5329 21602 l24 90 1
-11177 1 -11178 228 0 c1205 0 2729 152 4012 399 362 70 1105 233 1117 245 1
1 -1190 4839 -2647 10752 -1457 5912 -2652 10765 -2655 10784 -3 19 -14 69
-25 110 -10 41 -18 76 -16 78 7 6 531 -354 5121 -3522 l4660 -3217 7 173 c9
253 53 2847 47 2851 -2 2 -2078 790 -4614 1752 -2535 961 -4628 1756 -4651
1766 -46 20 -410 160 -497 191 -32 11 -57 21 -55 23 2 1 363 -42 803 -96 440
-54 854 -103 920 -109 66 -7 1925 -231 4130 -499 2206 -268 4011 -487 4012
-486 1 0 7 266 12 590 6 325 12 647 14 718 l4 127 -3997 0 -3997 0 -284 -35
c-156 -19 -583 -70 -949 -114 -366 -45 -672 -83 -681 -85 -11 -2 -52 36 -120
115 l-104 118 -74 1 -73 0 59 -42 c32 -24 98 -70 146 -102 48 -33 86 -61 84
-63 -2 -1 -128 44 -280 102 l-276 105 -658 -1 c-362 0 -653 -2 -648 -4z"/>
<path d="M23460 23798 c1 -9 109 -211 110 -204 0 7 -13 62 -41 169 -9 32 -14
37 -39 37 -17 0 -30 -1 -30 -2z"/>
<path d="M23580 23696 c0 -58 4 -107 8 -110 5 -3 30 21 58 52 27 31 69 79 94
107 l44 50 -33 3 c-18 2 -38 1 -44 -1 -7 -3 -34 -48 -62 -100 -27 -53 -51 -94
-53 -93 -2 2 8 47 21 100 l25 96 -29 0 -29 0 0 -104z"/>
<path d="M23778 23693 c-86 -59 -156 -109 -154 -110 3 -4 558 205 565 212 2 3
-54 5 -125 5 l-130 0 -156 -107z"/>
<path d="M23415 23443 c-66 -45 -127 -89 -136 -97 -16 -13 -8900 -6146 -9009
-6219 -30 -20 -149 -101 -263 -179 -115 -79 -213 -146 -218 -149 -8 -4 29
-2332 64 -4088 l2 -123 144 163 c79 90 154 173 165 185 12 12 53 58 91 104 75
89 9109 10287 9221 10408 36 40 65 74 63 76 -2 1 -58 -35 -124 -81z"/>
<path d="M23647 23442 c26 -51 381 -726 788 -1500 407 -774 2538 -4832 4735
-9019 2692 -5130 3997 -7607 4001 -7595 6 15 131 6960 130 7173 l-1 77 -4747
5359 c-2612 2948 -4784 5402 -4828 5452 -44 51 -91 105 -103 119 -15 17 -6 -6
25 -66z"/>
<path d="M5902 21414 c-2499 -304 -4546 -554 -4548 -557 -12 -12 113 -869 181
-1247 233 -1289 550 -2471 988 -3682 l111 -306 45 18 c26 10 1770 671 3876
1470 2107 799 3832 1454 3834 1456 6 6 61 3081 58 3254 l-2 145 -4543 -551z"/>
<path d="M36770 18453 c0 -60 16 -972 35 -2028 19 -1056 35 -1943 35 -1971 l0
-52 225 -153 c123 -85 1285 -886 2582 -1780 1297 -895 2362 -1625 2366 -1622
12 7 365 539 504 758 572 905 1095 1882 1531 2860 186 418 480 1140 469 1152
-3 2 -1645 627 -3649 1388 -2004 760 -3744 1421 -3867 1469 -123 47 -225 86
-227 86 -2 0 -4 -48 -4 -107z"/>
<path d="M7740 12618 c-1494 -1031 -2574 -1784 -2574 -1792 2 -15 223 -330
413 -586 467 -632 1008 -1284 1571 -1895 360 -390 1014 -1035 1480 -1456 l95
-87 633 715 632 714 0 122 c0 67 7 457 15 867 7 410 15 827 17 928 l3 183 -55
25 c-108 50 -180 145 -200 265 -13 85 -13 983 0 1068 19 112 82 201 182 257
50 27 60 29 191 32 l137 4 0 166 c0 92 9 635 20 1207 10 571 18 1040 17 1040
-1 1 -1161 -799 -2577 -1777z"/>
<path d="M37177 8049 c2 -90 13 -631 23 -1203 11 -571 21 -1040 23 -1042 13
-13 1197 967 1197 991 0 2 -179 206 -397 453 -219 248 -432 489 -473 537 -41
49 -80 94 -87 100 -6 7 -31 34 -54 61 -23 27 -74 85 -114 129 -40 44 -83 93
-97 109 l-25 30 4 -165z"/>
</g>
</svg>
