<?xml version="1.0" encoding="UTF-8" standalone="no"?>
<svg
   version="1.0"
   width="860.000000pt"
   height="790.000000pt"
   viewBox="0 0 860.000000 790.000000"
   preserveAspectRatio="xMidYMid meet"
   id="svg34"
   sodipodi:docname="-uoPCBPlAi1btuEka.svg"
   xmlns:inkscape="http://www.inkscape.org/namespaces/inkscape"
   xmlns:sodipodi="http://sodipodi.sourceforge.net/DTD/sodipodi-0.dtd"
   xmlns="http://www.w3.org/2000/svg"
   xmlns:svg="http://www.w3.org/2000/svg">
  <defs
     id="defs38" />
  <sodipodi:namedview
     id="namedview36"
     pagecolor="#ffffff"
     bordercolor="#000000"
     borderopacity="0.25"
     inkscape:showpageshadow="2"
     inkscape:pageopacity="0.0"
     inkscape:pagecheckerboard="0"
     inkscape:deskcolor="#d1d1d1"
     inkscape:document-units="pt" />
  <g
     transform="translate(0.000000,790.000000) scale(0.100000,-0.100000)"
     fill="#FF2F00"
     stroke="none"
     id="g32">
    <path
       d="M5476 7438 c-18 -174 -64 -280 -176 -402 -44 -49 -93 -109 -107 -134 -26 -44 -26 -44 -72 -38 -338 44 -591 60 -961 60 -412 0 -710 -27 -1100 -100 -851 -161 -1640 -487 -2100 -869 -91 -76 -249 -238 -311 -320 -359 -469 -443 -1006 -234 -1492 126 -293 323 -564 578 -794 192 -173 719 -589 1022 -805 99 -71 267 -185 374 -254 118 -76 225 -154 275 -200 258 -238 618 -436 951 -523 231 -61 551 -95 780 -83 381 20 666 91 970 241 151 74 292 170 439 300 37 32 125 89 212 137 335 183 601 351 833 527 84 64 201 149 260 190 565 394 928 779 1093 1162 104 241 120 469 58 793 -55 286 -158 493 -353 714 l-65 74 51 96 c70 134 110 193 179 263 33 34 58 62 56 64 -13 14 -443 195 -461 195 -13 0 -51 -13 -83 -30 -69 -34 -83 -28 -66 28 7 22 12 44 12 51 0 6 -73 48 -162 92 -152 76 -167 82 -221 81 -73 -2 -103 13 -142 72 -42 63 -180 140 -290 161 -86 17 -95 22 -126 71 -17 28 -56 52 -221 135 -178 89 -204 100 -237 94 -20 -3 -50 -1 -65 5 -23 8 -27 15 -22 33 22 73 20 83 -23 130 -58 63 -238 201 -329 253 -59 34 -182 84 -207 84 -1 0 -5 -28 -9 -62z m-946 -588 c217 -10 608 -45 619 -55 5 -6 -18 -101 -44 -180 -61 -185 -186 -468 -259 -589 -20 -32 -36 -60 -36 -61 0 -1 41 -13 90 -26 50 -12 90 -25 90 -28 0 -4 -39 -29 -87 -57 -118 -69 -242 -162 -331 -247 -69 -67 -72 -69 -66 -39 11 56 -4 101 -50 147 -85 85 -429 230 -677 286 -75 17 -139 22 -323 26 -421 9 -760 -35 -996 -131 -84 -34 -160 -88 -228 -161 -83 -88 -117 -163 -141 -307 -29 -171 -37 -183 -183 -258 -109 -56 -135 -75 -154 -112 -23 -45 -9 -84 51 -144 l52 -52 -93 -43 c-52 -23 -94 -48 -94 -55 0 -11 68 -69 160 -137 14 -10 -11 1 -55 24 -103 53 -144 67 -229 80 -85 12 -102 7 -115 -34 -5 -18 -31 -99 -56 -181 -26 -82 -48 -158 -50 -170 -1 -11 -23 -106 -49 -210 -33 -134 -43 -192 -35 -197 11 -7 246 -59 367 -81 76 -14 100 -40 83 -90 -9 -26 -8 -33 7 -44 9 -7 21 -14 26 -14 4 0 5 -12 2 -26 -4 -14 0 -50 9 -80 l15 -53 128 -40 c70 -22 167 -51 216 -64 137 -39 132 -47 -32 -47 l-142 0 1 -37 c0 -21 8 -67 17 -103 16 -62 18 -65 47 -65 17 0 143 4 280 8 l250 8 150 -84 c90 -51 180 -111 226 -151 72 -62 80 -66 125 -66 39 0 83 -15 221 -76 l171 -76 57 32 c31 18 60 41 64 52 6 17 12 10 33 -38 39 -90 65 -109 146 -109 51 0 80 6 122 26 l55 25 80 -54 80 -55 110 6 c60 3 128 11 149 17 29 9 55 9 103 0 78 -15 217 -8 290 14 28 9 74 32 102 51 l51 34 43 -19 c23 -11 55 -20 71 -20 43 0 110 36 147 78 43 48 124 68 211 51 72 -14 227 -6 295 15 28 9 73 31 100 49 l48 34 40 -18 c51 -23 97 -24 143 -2 51 24 110 88 124 135 10 33 19 44 54 58 51 22 119 82 141 123 10 20 15 58 15 111 1 97 -20 152 -82 219 -22 25 -37 48 -33 50 5 3 56 11 113 17 214 23 1054 181 1075 202 3 2 -16 87 -41 189 -25 101 -47 195 -49 209 -5 40 -114 383 -125 394 -6 6 -40 6 -97 -2 -68 -9 -110 -22 -183 -57 -79 -37 -89 -40 -60 -17 53 42 120 104 120 111 0 4 -61 36 -135 70 l-134 63 34 45 c43 56 76 155 84 250 l6 73 115 -67 c131 -78 200 -141 284 -261 l58 -83 58 103 c31 57 66 118 77 136 l21 34 77 -96 c42 -53 84 -96 93 -96 23 0 172 150 172 173 0 22 -106 157 -123 157 -17 0 -107 -89 -107 -106 0 -8 15 -31 34 -52 33 -35 36 -36 52 -20 15 15 16 21 5 44 -10 22 -9 30 2 41 12 12 18 9 40 -21 15 -19 27 -39 27 -44 0 -11 -99 -97 -104 -91 -1 2 -31 40 -66 83 l-64 79 89 84 c50 45 93 83 97 83 3 0 46 -51 94 -112 48 -62 91 -119 97 -126 8 -10 -16 -38 -97 -114 -80 -75 -106 -106 -104 -122 6 -45 44 -23 162 92 64 63 116 121 116 130 0 9 -57 88 -125 175 l-125 158 59 74 c33 41 68 88 77 105 10 16 22 30 26 30 11 0 141 -159 180 -220 55 -85 132 -246 167 -343 97 -276 99 -577 5 -839 -127 -353 -466 -746 -907 -1051 -689 -478 -1769 -747 -2995 -747 -869 0 -1572 142 -2222 448 -288 135 -740 408 -872 526 -431 385 -678 759 -755 1144 -24 120 -23 347 1 462 93 437 396 818 926 1165 534 350 1249 597 2058 709 437 61 727 75 1152 56z m1196 -865 c170 -30 334 -100 519 -223 113 -75 301 -254 333 -317 35 -71 83 -256 89 -346 7 -100 -4 -143 -47 -184 -25 -24 -40 -29 -122 -37 -254 -24 -269 -31 -404 -196 -120 -145 -317 -342 -405 -405 -114 -81 -170 -102 -270 -101 -72 1 -92 5 -117 23 -17 11 -44 24 -61 27 -17 4 -31 8 -31 10 0 3 19 28 43 57 64 79 103 145 133 222 22 59 25 82 22 145 -7 122 -66 207 -180 265 -39 19 -76 35 -83 35 -14 0 -110 143 -148 220 -43 89 -59 95 -267 94 -130 0 -193 -5 -244 -17 -42 -11 -73 -14 -79 -8 -23 23 95 182 241 323 334 322 729 473 1078 413z m-2011 -50 c294 -54 544 -145 637 -233 58 -54 78 -88 78 -135 0 -44 -19 -60 -107 -86 -40 -12 -79 -24 -87 -27 -11 -4 -13 0 -9 15 14 56 -81 168 -193 228 -218 116 -639 152 -784 67 -62 -36 -73 -62 -65 -150 9 -99 22 -113 205 -218 74 -43 163 -100 198 -127 34 -26 81 -54 105 -61 50 -15 387 -15 461 0 27 6 55 8 63 5 35 -13 -10 -160 -60 -195 -18 -13 -68 -28 -136 -40 -201 -36 -354 -87 -460 -155 -71 -44 -164 -135 -197 -190 l-25 -43 -116 0 c-122 0 -353 31 -558 75 -97 21 -133 35 -315 128 -237 120 -319 147 -380 127 -39 -13 -42 -12 -78 17 -46 37 -61 75 -41 99 8 9 69 43 136 76 75 36 131 70 147 88 25 31 46 87 46 126 0 36 49 195 81 261 40 84 99 156 162 198 81 54 342 123 598 159 143 21 566 15 694 -9z m652 -592 c-22 -43 -41 -80 -43 -82 -2 -2 -8 8 -13 23 -13 32 -17 32 -138 0 -119 -31 -291 -42 -375 -25 -75 16 -175 66 -183 92 -4 11 -5 22 -2 25 2 2 33 -9 69 -26 36 -16 96 -37 132 -46 61 -15 72 -15 165 0 106 18 328 76 383 100 18 8 36 15 39 15 4 1 -12 -34 -34 -76z m437 -134 c44 -12 126 -83 126 -109 0 -49 -11 -52 -55 -11 -62 57 -114 81 -177 81 -55 0 -196 -32 -330 -74 l-78 -24 7 27 c8 33 10 34 108 66 153 51 311 69 399 44z m127 -258 c199 -35 313 -85 373 -164 32 -41 56 -108 56 -154 0 -122 -173 -371 -308 -442 -45 -24 -76 -50 -103 -86 -41 -55 -63 -70 -119 -81 -19 -3 -47 -15 -62 -25 -19 -14 -44 -19 -95 -19 -45 0 -90 -8 -135 -24 l-66 -24 -34 35 c-56 59 -101 76 -183 71 -54 -4 -82 -11 -118 -32 -53 -32 -125 -108 -133 -143 -5 -20 -12 -23 -53 -23 -35 0 -59 -8 -96 -31 -46 -29 -51 -30 -89 -19 -77 23 -141 63 -207 129 -100 101 -172 239 -206 397 -15 68 -15 78 1 135 53 191 163 306 365 379 150 55 448 119 646 140 135 13 441 4 566 -19z m-2820 -106 c41 -14 175 -75 299 -135 288 -141 317 -148 610 -160 124 -5 242 -12 262 -16 l38 -6 -8 -41 c-4 -23 -7 -75 -6 -114 1 -69 0 -72 -20 -68 -12 2 -68 11 -126 20 -58 9 -108 19 -111 23 -3 4 -19 25 -37 48 -46 60 -74 66 -332 71 l-225 5 -115 46 c-139 55 -349 161 -450 226 l-74 48 29 16 c58 31 140 62 166 62 14 0 59 -11 100 -25z m-275 -122 c56 -38 242 -132 464 -235 l35 -17 -40 0 c-64 -1 -173 26 -224 55 -120 70 -349 229 -338 236 21 13 33 9 103 -39z m4842 16 c43 -16 81 -34 86 -39 20 -20 -321 -204 -528 -285 -102 -40 -123 -45 -195 -45 -45 0 -81 2 -81 5 0 3 28 38 63 78 34 40 72 86 84 102 30 43 289 170 408 201 72 18 79 17 163 -17z m-5040 -85 c42 -14 134 -52 205 -85 294 -138 305 -140 702 -149 198 -5 345 -12 367 -19 23 -7 57 -33 92 -72 89 -96 89 -96 -2 -106 -42 -4 -170 -8 -283 -8 l-207 0 -42 34 -42 33 -28 -27 -29 -27 -102 17 c-134 22 -203 40 -529 141 -152 46 -283 84 -293 84 -21 0 -21 -1 5 121 l21 101 45 -7 c24 -4 78 -18 120 -31z m5217 6 c5 -9 -183 -140 -320 -223 -61 -37 -175 -67 -252 -67 -33 0 -16 10 125 75 177 81 279 135 357 189 51 35 79 44 90 26z m278 -147 c30 -143 34 -132 -58 -158 -44 -12 -174 -52 -290 -88 -370 -115 -509 -141 -816 -153 l-164 -6 -49 28 -49 28 24 15 c13 9 59 44 102 79 l79 63 187 -1 c285 -1 371 20 669 159 128 60 273 109 323 110 25 1 27 -4 42 -76z m-5392 -176 c255 -72 256 -72 255 -99 -1 -20 -5 -26 -16 -23 -8 2 -148 38 -310 81 -162 42 -297 78 -299 80 -2 2 7 13 20 24 31 26 38 25 350 -63z m5455 -36 c14 -11 21 -22 16 -25 -11 -7 -652 -173 -872 -227 -146 -35 -196 -43 -306 -47 l-131 -4 -27 28 c-14 16 -26 31 -26 35 0 3 96 11 213 17 237 13 306 26 637 119 325 92 434 122 453 122 11 1 30 -8 43 -18z m-5644 -42 c48 -13 94 -33 120 -53 81 -62 223 -154 303 -197 149 -80 162 -104 24 -43 -93 41 -104 42 -174 22 -49 -14 -55 -13 -250 34 -110 26 -211 48 -224 48 -23 0 -24 1 -17 67 4 36 11 87 17 113 l10 47 57 -9 c31 -5 92 -18 134 -29z m1669 6 c96 -18 96 -18 107 -52 10 -33 10 -35 -11 -29 -12 2 -53 10 -90 17 -61 11 -72 17 -98 51 -17 21 -25 36 -17 34 7 -2 56 -12 109 -21z m-1426 -55 c22 -6 81 -32 130 -58 85 -44 90 -49 96 -84 3 -21 4 -38 2 -38 -7 0 -258 161 -284 182 -26 21 -29 21 56 -2z m466 -8 l87 -18 -14 -26 -14 -26 -62 14 c-48 11 -72 23 -98 50 -33 33 -34 35 -10 29 14 -3 64 -14 111 -23z m879 -32 c0 -4 -12 -11 -27 -14 -50 -10 -326 -45 -413 -51 l-85 -7 -33 35 -34 35 249 5 c136 2 262 9 278 14 30 10 65 1 65 -17z m4093 8 c13 -56 28 -181 23 -194 -3 -8 -15 -14 -26 -14 -12 0 -133 -27 -268 -59 -264 -63 -423 -96 -512 -106 l-55 -6 72 35 c121 58 270 146 387 228 123 87 192 112 367 137 4 1 9 -9 12 -21z m-1937 -20 c26 -18 58 -47 71 -64 l23 -31 -33 -1 c-26 -1 -41 6 -67 33 -65 67 -146 68 -224 3 -60 -49 -80 -99 -81 -198 0 -47 4 -104 8 -127 6 -27 5 -43 -1 -43 -5 0 -12 20 -14 45 -4 28 -16 59 -33 81 -24 32 -27 42 -22 89 14 138 132 243 273 244 42 1 60 -5 100 -31z m-1993 -18 c48 -10 60 -16 72 -41 18 -34 19 -34 -38 -10 -24 10 -70 25 -103 32 -32 7 -51 14 -41 17 9 2 17 7 17 12 0 4 8 6 18 4 9 -2 43 -8 75 -14z m2394 -26 c52 -21 102 -63 128 -109 29 -48 32 -90 9 -99 -28 -11 -34 -7 -34 23 0 73 -106 151 -204 151 -28 -1 -69 -7 -91 -15 -55 -20 -70 -19 -83 9 -10 22 -8 24 46 40 31 8 68 17 82 20 36 5 110 -4 147 -20z m1173 12 c0 -9 -278 -182 -368 -229 -67 -35 -128 -58 -225 -82 l-132 -33 -12 21 c-15 27 -10 31 52 46 61 15 288 113 448 193 115 57 237 101 237 84z m-4538 -42 c27 -4 49 -19 79 -51 22 -24 39 -46 37 -49 -3 -2 -25 3 -49 11 -46 16 -162 110 -124 101 11 -3 37 -8 57 -12z m886 -13 c44 -4 -46 -61 -220 -139 -90 -40 -103 -43 -151 -37 -49 7 -57 12 -124 84 l-72 76 127 12 c70 7 136 14 147 15 16 2 231 -6 293 -11z m1920 -20 l3 -33 47 6 47 7 -30 -23 c-42 -32 -71 -62 -77 -78 -3 -10 -17 -6 -56 20 l-51 33 17 30 c21 36 71 79 86 74 6 -2 12 -18 14 -36z m69 23 c-3 -3 -12 -4 -19 -1 -8 3 -5 6 6 6 11 1 17 -2 13 -5z m1318 -41 c-53 -29 -227 -99 -329 -133 l-98 -32 -37 20 c-20 11 -64 24 -98 27 -48 6 -62 11 -66 26 -5 18 2 19 93 19 121 0 202 11 395 54 178 40 178 40 140 19z m-3011 -141 c51 -54 141 -115 203 -138 27 -10 49 -19 51 -20 2 -1 -5 -19 -16 -41 -11 -21 -23 -53 -27 -70 -4 -21 -21 -44 -46 -63 -36 -29 -43 -31 -92 -25 l-54 7 34 36 c58 63 60 59 -43 152 -52 47 -98 86 -102 87 -4 1 -19 4 -33 7 l-25 5 13 93 c8 51 16 99 19 107 2 8 19 -9 40 -40 20 -30 55 -73 78 -97z m-2042 102 c68 -14 138 -28 156 -31 31 -5 55 -23 31 -23 -6 0 -9 -8 -6 -20 3 -11 0 -20 -6 -20 -7 0 -94 16 -195 37 l-183 36 22 24 c28 29 31 29 181 -3z m2888 -9 c25 -13 110 -94 110 -104 0 -4 -12 -7 -27 -8 -20 -1 -40 10 -69 37 -68 63 -136 63 -221 1 -56 -41 -85 -111 -85 -210 0 -85 25 -196 50 -224 15 -16 14 -19 -6 -40 l-22 -22 -29 30 c-62 62 -79 284 -31 392 37 83 96 132 191 157 56 15 97 12 139 -9z m1378 -23 c6 -9 12 -24 12 -34 0 -15 -9 -12 -57 19 -32 20 -60 38 -62 40 -3 1 18 0 45 -3 27 -4 55 -13 62 -22z m-2422 -76 c-9 -31 -20 -56 -25 -56 -19 0 -18 16 7 66 14 29 28 52 30 49 2 -2 -3 -29 -12 -59z m1469 40 c41 -18 112 -81 131 -117 19 -37 18 -85 -2 -93 -28 -11 -34 -6 -34 27 0 109 -156 177 -299 130 -49 -16 -52 -15 -66 3 -8 10 -15 22 -15 26 0 7 76 33 120 42 38 7 128 -3 165 -18z m667 1 c16 -26 30 -124 26 -188 -4 -73 -9 -85 -33 -76 -12 5 -15 23 -15 79 0 66 -14 139 -36 192 -6 17 -4 18 22 12 16 -4 32 -13 36 -19z m-93 10 c-16 -12 -79 -45 -79 -42 0 7 63 45 74 45 5 0 7 -1 5 -3z m-1022 -38 c19 -12 31 -25 26 -29 -60 -54 -124 -88 -174 -94 -43 -5 -58 -4 -68 8 -24 29 31 97 100 125 39 16 80 12 116 -10z m1236 -3 c30 -13 63 -37 75 -53 21 -29 21 -31 3 -47 -17 -16 -19 -14 -42 19 -13 19 -43 44 -66 56 -42 20 -64 49 -38 49 8 0 39 -11 68 -24z m1726 0 l22 -23 -243 -47 c-324 -63 -702 -132 -811 -147 -96 -13 -107 -10 -107 37 0 28 23 34 132 34 104 0 299 32 605 99 368 81 370 81 402 47z m-1916 -15 c3 -12 -4 -23 -24 -35 -16 -9 -41 -33 -55 -52 -26 -34 -27 -34 -41 -14 -19 27 -5 50 53 89 55 36 60 37 67 12z m619 -11 c48 -14 93 -67 113 -132 20 -69 20 -102 -1 -94 -9 3 -19 6 -24 6 -4 0 -10 19 -14 42 -9 56 -44 117 -78 134 -31 16 -115 19 -152 4 -21 -8 -27 -6 -36 9 -8 17 -5 20 28 29 50 13 119 14 164 2z m-1352 -30 c0 -5 -8 -10 -17 -10 -15 0 -16 2 -3 10 19 12 20 12 20 0z m385 -10 c3 -5 1 -10 -4 -10 -6 0 -11 5 -11 10 0 6 2 10 4 10 3 0 8 -4 11 -10z m530 -20 c16 -16 27 -32 24 -34 -2 -2 -20 -6 -39 -8 -33 -3 -35 -2 -37 35 -4 46 12 49 52 7z m-165 -28 c0 -38 -1 -38 -49 -48 l-50 -10 15 27 c14 27 59 69 75 69 5 0 9 -17 9 -38z m-594 7 c3 -6 0 -15 -7 -20 -22 -14 -28 -11 -22 11 6 22 18 26 29 9z m884 -91 c-18 -35 -38 -66 -44 -70 -13 -9 -56 -11 -56 -3 0 16 54 109 82 141 31 35 33 36 42 15 7 -16 2 -35 -24 -83z m317 65 c2 -6 -22 -15 -54 -22 -32 -6 -68 -14 -81 -18 -21 -5 -23 -3 -20 23 3 26 8 30 58 40 55 11 89 3 97 -23z m-946 7 c10 -6 19 -20 19 -31 0 -16 -4 -19 -22 -13 -13 3 -24 7 -24 8 -1 0 -5 11 -8 24 -8 24 3 28 35 12z m-544 -16 c16 -4 25 -19 34 -57 13 -51 17 -212 6 -223 -3 -3 -14 -3 -24 0 -15 5 -18 18 -19 93 -1 52 -8 106 -18 132 -24 64 -23 67 21 55z m-107 -25 c-19 -12 -44 -29 -55 -38 -19 -15 -19 -15 -5 3 17 21 69 56 85 56 6 0 -6 -10 -25 -21z m430 6 c0 -8 -4 -15 -9 -15 -13 0 -22 16 -14 24 11 11 23 6 23 -9z m-175 -30 c29 -14 61 -37 70 -51 16 -25 16 -27 -4 -47 -12 -12 -21 -16 -21 -10 0 23 -61 82 -95 93 -35 12 -49 40 -19 40 8 0 39 -11 69 -25z m919 -7 c-9 -18 -17 -34 -18 -35 0 -1 -14 -5 -29 -8 -27 -7 -28 -6 -25 26 3 35 2 34 81 48 4 0 0 -14 -9 -31z m-1116 -10 c2 -8 -11 -24 -27 -35 -17 -10 -42 -33 -55 -51 l-23 -32 -16 23 c-15 23 -14 26 16 54 66 61 99 74 105 41z m1572 7 c0 -16 -17 -19 -47 -8 -16 6 -15 8 7 14 38 11 40 10 40 -6z m-319 -18 c-10 -9 -11 -8 -5 6 3 10 9 15 12 12 3 -3 0 -11 -7 -18z m-591 -17 c36 -26 74 -102 84 -168 6 -42 6 -43 -16 -36 -27 8 -38 22 -38 49 -1 34 -36 100 -66 124 -26 21 -38 23 -113 19 -59 -2 -85 1 -88 9 -7 19 55 33 133 29 55 -2 79 -8 104 -26z m-1160 -15 c0 -20 -10 -30 -51 -51 -28 -14 -54 -23 -57 -20 -11 11 28 77 50 86 41 16 58 12 58 -15z m2025 1 c80 -21 120 -41 165 -83 51 -45 77 -99 86 -174 12 -101 -32 -186 -118 -230 l-38 -19 0 27 c0 21 10 34 39 52 21 12 46 36 55 53 23 38 23 126 0 174 -38 80 -162 144 -278 144 -29 0 -55 2 -58 5 -2 3 -3 18 0 35 4 28 7 30 51 30 25 0 69 -6 96 -14z m-1870 -6 c3 -5 2 -10 -4 -10 -5 0 -13 5 -16 10 -3 6 -2 10 4 10 5 0 13 -4 16 -10z m495 1 c0 -6 -4 -13 -10 -16 -5 -3 -10 1 -10 9 0 9 5 16 10 16 6 0 10 -4 10 -9z m-134 -35 c3 -13 2 -43 -3 -67 -9 -43 -10 -44 -43 -41 -47 5 -64 29 -43 62 16 26 63 70 75 70 4 0 10 -11 14 -24z m314 -17 c9 -17 6 -28 -19 -68 -17 -26 -31 -53 -31 -60 0 -18 -48 -37 -61 -24 -7 7 -4 24 12 54 20 41 76 119 84 119 3 0 9 -9 15 -21z m170 6 c10 -13 9 -15 -8 -15 -22 0 -36 13 -25 24 10 10 20 7 33 -9z m654 -15 c117 -37 183 -99 213 -199 19 -65 13 -148 -14 -194 -56 -95 -224 -153 -384 -133 -68 9 -80 16 -72 44 4 18 10 21 32 14 56 -15 203 -6 264 18 115 44 158 110 137 207 -27 120 -126 184 -309 199 l-76 6 -60 -44 c-33 -25 -66 -52 -74 -61 -20 -25 -31 -21 -31 11 0 31 30 64 115 126 49 36 51 37 123 31 40 -3 101 -15 136 -25z m-1472 -2 c12 -10 14 -23 9 -58 l-6 -45 -18 26 c-24 36 -33 89 -15 89 8 0 21 -6 30 -12z m-172 -7 c0 -5 3 -23 6 -40 l7 -31 -72 0 c-88 0 -93 15 -19 53 54 28 78 33 78 18z m698 -27 c4 -28 -39 -88 -66 -92 -34 -5 -29 40 9 83 34 38 52 41 57 9z m1315 5 c26 -6 47 -17 47 -24 0 -19 -29 -85 -38 -85 -4 0 -17 18 -30 40 -12 22 -26 40 -31 40 -5 0 -33 11 -62 25 l-54 25 60 -5 c33 -3 81 -10 108 -16z m-2273 -53 c0 -19 -6 -39 -13 -45 -8 -6 -20 -29 -27 -50 -7 -22 -28 -55 -48 -73 l-34 -33 6 37 c14 79 48 163 74 185 33 26 42 22 42 -21z m1389 0 c9 -11 6 -12 -14 -8 -14 2 -25 8 -25 13 0 14 26 11 39 -5z m371 10 c0 -2 -7 -7 -16 -10 -8 -3 -12 -2 -9 4 6 10 25 14 25 6z m618 -9 c11 -13 -10 -71 -41 -111 -14 -19 -14 -19 -24 0 -8 14 -4 32 14 72 25 54 33 61 51 39z m-1023 -39 c59 -12 140 -51 173 -81 52 -48 75 -105 80 -192 5 -103 -16 -151 -85 -196 -57 -35 -63 -36 -63 -5 0 17 11 31 36 47 96 59 101 193 9 284 -48 48 -126 78 -238 90 -54 6 -58 8 -53 28 3 12 6 28 6 35 0 13 39 10 135 -10z m-1047 -30 l31 -33 -86 1 c-87 2 -98 7 -102 46 -1 8 32 15 85 17 33 1 46 -5 72 -31z m2133 -32 c15 -54 4 -100 -32 -136 -17 -16 -34 -30 -38 -30 -4 0 -13 22 -20 48 -12 47 -11 50 24 107 19 32 35 64 35 69 0 19 20 -18 31 -58z m-261 -8 c35 -48 36 -54 11 -67 -16 -9 -20 -4 -33 49 -8 33 -13 60 -11 60 1 0 16 -19 33 -42z m-1248 17 c190 -40 278 -133 278 -295 0 -61 -4 -82 -23 -114 -50 -82 -164 -130 -312 -130 -109 -1 -178 18 -263 73 -108 70 -127 136 -70 242 37 71 112 151 188 202 62 42 93 45 202 22z m839 -22 c6 -31 5 -33 -21 -33 -46 0 -60 10 -60 42 0 28 2 29 37 26 33 -3 38 -7 44 -35z m261 -8 c11 -20 11 -20 -11 -1 -11 11 -21 26 -21 35 0 14 2 14 10 1 6 -8 16 -24 22 -35z m-1983 -22 c12 -26 11 -30 -18 -52 -17 -13 -56 -54 -87 -92 l-56 -68 0 -103 c-1 -162 46 -258 126 -258 41 0 139 47 203 99 46 36 118 117 141 157 5 9 16 11 36 6 l28 -8 -44 -59 c-62 -85 -145 -155 -236 -200 -64 -33 -87 -39 -139 -40 -77 0 -100 19 -139 114 -23 56 -28 85 -32 187 -3 99 -1 127 12 156 17 36 165 188 183 188 5 0 15 -12 22 -27z m531 6 c46 -18 45 -16 30 -34 -17 -20 -46 -19 -100 6 -43 20 -44 21 -25 35 21 16 37 15 95 -7z m1460 -71 c0 -26 -12 -23 -68 18 -2 1 0 14 4 28 l7 27 28 -27 c16 -15 29 -36 29 -46z m-1774 32 c22 0 23 -2 12 -25 -14 -32 -19 -32 -48 7 -19 25 -20 30 -6 25 10 -4 28 -7 42 -7z m219 -39 c6 -26 -1 -95 -12 -113 -2 -4 -13 -4 -25 1 -19 7 -21 14 -19 77 1 37 5 72 7 76 10 16 42 -12 49 -41z m985 14 c0 -15 -52 -115 -61 -115 -18 0 -17 37 3 90 20 50 25 56 40 46 10 -6 18 -15 18 -21z m250 15 c12 -8 9 -10 -12 -10 -16 0 -28 5 -28 10 0 13 20 13 40 0z m516 -22 c8 -13 -30 -48 -52 -48 -22 0 -17 26 9 43 27 19 34 20 43 5z m-2148 -14 c6 -12 2 -29 -15 -59 -13 -24 -27 -62 -31 -85 l-7 -42 -24 19 c-22 18 -23 22 -11 59 15 49 58 124 70 124 5 0 13 -7 18 -16z m1932 -44 c8 -5 10 -10 4 -10 -7 0 -22 9 -35 21 -19 16 -20 18 -4 10 11 -6 27 -15 35 -21z m-26 -30 c12 -1 -23 -30 -36 -30 -9 0 -48 59 -48 72 0 4 16 -4 36 -17 20 -14 42 -25 48 -25z m266 10 c0 -17 -7 -20 -47 -20 l-48 1 40 18 c52 25 55 25 55 1z m-753 -12 c21 -20 33 -68 16 -68 -5 1 -21 11 -37 24 -21 18 -26 29 -21 45 8 26 13 26 42 -1z m-1339 -30 l33 -42 -33 -12 c-18 -6 -45 -14 -61 -18 -26 -6 -27 -5 -21 21 11 44 32 93 41 93 5 0 23 -19 41 -42z m1659 27 c4 -13 -75 -65 -97 -65 -9 0 -23 12 -31 28 -7 15 -15 30 -17 34 -5 9 36 16 92 14 27 0 51 -6 53 -11z m-547 -16 c9 -15 8 -24 -1 -35 -19 -23 -29 -16 -29 21 0 39 14 46 30 14z m978 -41 c-3 -21 -9 -23 -80 -26 -43 -2 -78 0 -78 4 0 4 7 16 17 26 12 14 31 18 80 18 61 0 64 -1 61 -22z m-2279 -77 c32 -18 101 -12 172 13 56 19 70 21 89 11 22 -12 23 -13 4 -23 -47 -25 -161 -52 -218 -52 -80 0 -106 17 -106 69 0 49 11 58 26 22 7 -16 21 -34 33 -40z m1521 23 c0 -11 -21 -24 -40 -24 -4 0 -13 13 -18 29 l-10 29 34 -11 c19 -6 34 -16 34 -23z m-176 11 c5 -14 -38 -45 -64 -45 -21 0 -9 30 18 44 34 19 39 19 46 1z m736 -15 c0 -5 -5 -10 -11 -10 -5 0 -7 5 -4 10 3 6 8 10 11 10 2 0 4 -4 4 -10z m170 -9 c0 -17 -56 -45 -89 -44 -38 1 -56 15 -48 37 5 12 22 16 72 16 36 0 65 -4 65 -9z m-1920 -40 c0 -22 -96 -131 -115 -131 -17 0 -77 72 -67 81 4 4 36 16 72 28 36 12 72 26 80 31 22 14 30 12 30 -9z m1632 -6 c2 -22 -110 -67 -178 -72 -68 -6 -69 -6 -51 14 9 11 17 24 17 30 0 16 25 23 83 24 29 1 66 5 82 9 36 9 46 8 47 -5z m-612 -16 c0 -5 -19 -9 -42 -8 l-43 0 35 13 c36 13 50 12 50 -5z m-830 -23 c14 -18 14 -19 -8 -7 -12 7 -20 17 -16 22 3 6 7 9 8 7 1 -2 8 -12 16 -22z m1170 4 c0 -15 -85 -67 -147 -90 -65 -24 -73 -25 -73 -5 0 9 19 24 43 34 23 11 57 31 76 45 35 26 101 36 101 16z m340 -21 c0 -10 -71 -54 -120 -73 -49 -20 -218 -34 -266 -22 l-28 7 30 20 c20 13 47 19 89 19 74 0 166 23 220 54 31 19 43 21 57 12 10 -6 18 -14 18 -17z m-1551 -9 c16 -10 57 -30 92 -44 115 -43 184 -76 164 -76 -54 0 -156 24 -210 51 -78 38 -99 54 -92 74 8 20 13 19 46 -5z m891 13 c0 -5 -3 -18 -6 -30 -6 -21 -12 -23 -80 -23 -41 0 -74 3 -74 8 1 26 31 41 86 45 32 2 62 4 67 5 4 1 7 -1 7 -5z m-1228 -51 l38 -47 -25 -13 c-31 -16 -37 -13 -76 45 -25 36 -29 47 -18 54 26 16 44 8 81 -39z m-89 -38 c39 -54 39 -64 0 -64 -37 0 -61 17 -83 60 -25 48 -25 50 -1 50 11 0 23 5 27 11 7 12 8 12 57 -57z m365 10 c7 -49 14 -65 38 -93 l26 -31 -48 0 c-32 0 -61 8 -89 25 l-42 24 46 50 c48 51 64 57 69 25z m902 -19 c-15 -19 -37 -19 -70 0 -24 14 -23 14 29 15 46 0 52 -2 41 -15z m-771 -54 l34 -30 -27 -7 c-19 -4 -33 -1 -47 12 -19 17 -49 65 -49 79 0 9 53 -23 89 -54z m676 29 c3 -5 2 -10 -4 -10 -5 0 -13 5 -16 10 -3 6 -2 10 4 10 5 0 13 -4 16 -10z m-177 -12 c-7 -24 -115 -70 -178 -75 l-61 -6 17 37 c17 34 20 36 68 37 28 0 69 4 91 8 59 13 67 12 63 -1z m-286 -51 c-57 -60 -202 -107 -333 -107 -85 0 -88 1 -149 41 l-62 42 30 19 29 18 59 -36 c58 -35 60 -35 137 -29 89 7 158 26 202 54 17 11 48 20 69 20 l39 1 -21 -23z m338 8 c16 -19 8 -30 -43 -59 -80 -47 -229 -69 -327 -49 l-33 6 34 18 c21 11 56 18 89 19 70 0 162 24 215 54 49 29 50 29 65 11z m-1966 -730 c103 -47 297 -116 431 -154 709 -199 1519 -169 2293 84 76 25 142 45 147 45 4 0 -28 -28 -71 -61 -340 -265 -620 -360 -1145 -389 -492 -27 -927 53 -1319 241 -131 63 -315 177 -395 244 -39 33 -32 32 59 -10z"
       id="path2" />
    <path
       d="M4321 6736 c-15 -18 -61 -446 -50 -468 11 -21 25 -23 242 -44 137 -14 180 -15 189 -6 7 7 17 76 24 165 15 188 22 178 -141 197 -98 11 -119 10 -130 -1 -9 -9 -17 -50 -21 -106 l-7 -92 28 -11 c43 -16 126 -9 139 13 16 25 -4 51 -43 55 -27 3 -31 7 -31 33 0 32 14 35 93 22 l39 -6 -7 -91 c-4 -50 -9 -93 -11 -95 -5 -5 -268 21 -276 28 -4 3 1 80 11 171 15 153 18 165 36 163 211 -23 401 -46 404 -49 2 -2 -4 -83 -14 -181 -21 -216 -19 -237 16 -241 14 -2 30 3 36 10 6 7 20 114 32 238 17 190 18 227 7 238 -9 9 -99 24 -257 43 -282 33 -293 34 -308 15z"
       id="path4" />
    <path
       d="M3805 6719 c-245 -10 -240 -8 -231 -104 3 -33 9 -133 12 -223 5 -123 10 -167 21 -178 12 -11 32 -13 87 -9 39 2 128 8 197 11 69 3 131 9 136 12 16 10 17 26 9 175 -11 188 -5 181 -171 170 l-130 -8 0 -90 c1 -124 1 -125 79 -125 45 0 69 5 80 16 19 18 19 20 6 45 -8 13 -21 19 -45 19 -32 0 -35 2 -35 30 l0 30 64 0 63 0 7 -92 c3 -50 5 -92 4 -93 -2 -2 -67 -6 -144 -10 l-142 -7 -7 167 c-4 91 -5 168 -3 171 11 10 421 19 424 9 1 -5 7 -94 12 -197 9 -192 16 -218 52 -218 41 0 43 17 28 260 -11 178 -18 234 -29 241 -16 10 -44 10 -344 -2z"
       id="path6" />
    <path
       d="M3147 6624 c-183 -22 -263 -36 -274 -46 -13 -14 -12 -37 11 -214 36 -277 33 -263 60 -270 12 -3 94 4 182 16 215 28 223 30 233 49 11 19 -34 310 -49 325 -12 12 -250 -11 -267 -26 -16 -13 -16 -56 -2 -134 15 -80 22 -87 83 -79 56 8 96 28 96 50 0 25 -31 46 -64 43 -26 -3 -32 1 -34 21 -5 31 12 41 74 41 l52 0 13 -85 c7 -52 9 -89 3 -94 -9 -8 -264 -45 -269 -39 -5 5 -47 329 -43 333 7 7 413 53 419 47 3 -4 18 -92 32 -195 14 -104 31 -195 38 -203 15 -18 43 -18 59 2 11 12 8 54 -19 236 -18 121 -35 226 -37 233 -3 7 -13 15 -22 17 -9 2 -133 -10 -275 -28z"
       id="path8" />
    <path
       d="M2448 6443 c-184 -59 -239 -80 -244 -95 -8 -25 47 -416 61 -435 10 -13 36 -7 185 42 96 31 180 61 187 67 18 14 16 41 -9 185 -14 82 -27 127 -36 131 -18 7 -213 -55 -231 -73 -13 -13 -13 -26 0 -102 l14 -88 32 1 c47 2 107 35 111 60 4 30 -20 47 -51 35 -21 -8 -26 -7 -31 12 -3 12 -6 25 -6 29 0 7 110 42 115 36 4 -5 27 -170 23 -173 -7 -5 -224 -75 -234 -75 -10 0 -29 98 -50 257 l-6 52 178 56 c99 32 183 58 189 59 5 0 21 -76 35 -170 30 -195 33 -204 58 -204 47 0 48 19 13 238 -30 189 -42 233 -60 231 -3 0 -113 -34 -243 -76z"
       id="path10" />
    <path
       d="M1821 6201 c-113 -58 -210 -114 -215 -124 -8 -13 1 -64 39 -213 28 -108 56 -199 62 -201 19 -8 336 162 343 183 8 21 -58 256 -76 275 -9 8 -38 -3 -115 -43 -82 -41 -105 -58 -107 -76 -6 -38 36 -162 54 -162 26 0 103 50 109 71 10 31 -11 50 -42 38 -29 -11 -43 -5 -43 20 0 19 88 67 100 54 9 -10 40 -115 40 -136 0 -18 -209 -132 -220 -120 -7 7 -81 276 -77 279 31 17 339 174 341 174 2 0 23 -73 46 -162 24 -90 49 -169 56 -176 16 -19 54 2 54 30 0 23 -84 338 -100 376 -5 12 -18 21 -27 21 -10 -1 -110 -50 -222 -108z"
       id="path12" />
    <path
       d="M1272 5854 c-95 -70 -177 -135 -182 -144 -8 -15 8 -58 72 -194 46 -101 87 -176 95 -176 7 0 72 44 143 97 100 75 130 103 130 121 0 27 -106 242 -120 242 -17 0 -165 -110 -173 -129 -6 -13 1 -37 23 -82 18 -35 38 -67 44 -71 10 -6 72 33 88 56 25 35 -8 69 -45 47 -16 -10 -21 -10 -28 1 -5 7 -9 18 -9 23 0 10 79 70 84 64 7 -10 66 -142 64 -144 -2 -1 -43 -32 -93 -69 l-90 -68 -57 122 c-32 67 -58 126 -58 130 0 9 253 198 270 202 6 2 42 -62 79 -142 60 -126 72 -145 93 -145 16 0 24 6 26 21 4 25 -157 364 -172 364 -7 0 -89 -57 -184 -126z"
       id="path14" />
    <path
       d="M944 5512 c-24 -15 -214 -328 -212 -347 4 -27 242 -257 260 -249 19 8 158 238 158 262 0 19 -158 172 -178 172 -10 0 -112 -150 -112 -166 0 -17 95 -104 113 -104 11 0 26 17 39 45 21 43 21 46 4 63 -16 16 -18 16 -35 -5 -17 -21 -20 -21 -34 -5 -13 15 -12 21 10 56 l25 38 49 -48 c27 -26 49 -52 49 -56 0 -4 -23 -44 -51 -88 -60 -93 -42 -96 -165 23 l-72 69 82 129 c44 71 84 129 88 129 3 0 54 -45 112 -101 107 -102 136 -116 136 -67 0 16 -28 49 -93 109 -141 131 -162 148 -173 141z"
       id="path16" />
    <path
       d="M670 4954 c0 -3 -14 -81 -30 -173 -17 -93 -28 -175 -25 -182 7 -19 303 -182 319 -176 7 3 22 62 35 137 20 111 21 134 10 145 -28 25 -211 117 -219 108 -14 -15 -39 -157 -30 -173 13 -23 115 -74 134 -67 26 10 22 93 -5 107 -17 10 -21 8 -26 -9 -6 -22 -12 -25 -35 -16 -15 6 -13 71 3 81 5 3 36 -9 69 -27 43 -23 59 -37 56 -48 -3 -9 -10 -49 -16 -88 -7 -40 -15 -73 -19 -73 -7 0 -212 107 -219 115 -4 4 41 253 48 265 4 7 56 -16 139 -61 101 -55 135 -69 144 -60 22 22 -7 45 -154 123 -129 69 -179 89 -179 72z"
       id="path18" />
    <path
       d="M7795 4784 c-77 -46 -148 -93 -158 -103 -17 -17 -17 -23 -2 -122 19 -119 23 -139 34 -139 10 0 192 117 210 135 10 10 12 31 6 89 -8 90 -12 92 -96 40 -55 -34 -59 -40 -59 -73 0 -49 17 -67 42 -44 10 9 18 26 18 39 0 13 9 28 20 34 17 9 20 8 20 -14 0 -13 2 -30 5 -38 4 -9 -17 -27 -57 -50 -34 -20 -64 -35 -67 -33 -9 10 -29 151 -21 158 13 14 214 136 218 132 6 -6 40 -240 36 -247 -3 -4 -65 -44 -139 -88 -99 -60 -135 -86 -135 -101 0 -10 6 -19 14 -19 18 0 285 166 307 190 15 17 14 31 -7 172 -13 84 -24 156 -24 161 0 17 -33 2 -165 -79z"
       id="path20" />
    <path
       d="M637 4482 c-2 -4 13 -86 35 -182 26 -118 45 -181 58 -195 23 -23 286 -162 294 -155 2 3 -7 53 -21 110 -14 58 -30 122 -35 143 -8 35 -15 40 -109 88 -56 28 -104 48 -107 45 -3 -3 0 -32 7 -63 25 -116 28 -121 92 -153 32 -17 61 -30 65 -30 10 0 -6 73 -22 98 -19 28 -48 30 -39 2 7 -23 -7 -27 -24 -7 -12 16 -27 77 -17 77 3 0 30 -12 60 -27 47 -23 55 -31 60 -62 4 -20 13 -62 20 -94 l14 -57 -107 55 -108 56 -30 137 c-16 75 -29 139 -27 141 2 2 55 -24 118 -58 64 -33 120 -61 126 -61 16 0 12 26 -7 42 -30 25 -292 158 -296 150z"
       id="path22" />
    <path
       d="M7773 4336 c-67 -18 -126 -35 -130 -39 -4 -4 -9 -61 -11 -127 -4 -97 -2 -120 9 -120 19 0 190 48 197 55 9 8 15 132 9 149 -5 13 -13 13 -57 1 -66 -17 -80 -30 -80 -72 0 -30 3 -34 22 -31 13 2 24 11 27 23 3 19 18 35 34 35 4 0 7 -16 7 -35 0 -38 -17 -50 -87 -62 l-33 -6 0 50 c0 105 2 108 93 132 45 12 91 25 101 28 18 5 19 0 13 -117 -3 -67 -7 -123 -9 -125 -2 -2 -57 -17 -123 -34 -108 -29 -134 -41 -135 -63 0 -5 9 -8 20 -8 32 0 264 62 277 74 7 7 14 68 19 169 l7 157 -24 -1 c-13 0 -79 -15 -146 -33z"
       id="path24" />
    <path
       d="M906 3888 c50 -90 294 -344 454 -471 180 -144 458 -316 678 -419 515 -242 1087 -383 1772 -439 197 -16 828 -16 1060 0 756 52 1328 183 1779 406 376 187 636 416 824 727 26 43 47 80 47 83 0 3 -35 -38 -78 -92 -378 -471 -978 -788 -1809 -952 -700 -139 -1607 -155 -2328 -41 -982 156 -1840 577 -2355 1155 -29 33 -49 52 -44 43z"
       id="path26" />
    <path
       d="M4429 3300 c-67 -50 -129 -128 -150 -187 -22 -66 31 -124 164 -175 140 -55 383 -4 432 91 32 63 12 166 -43 224 -53 56 -174 97 -287 97 -44 0 -57 -6 -116 -50z m141 16 c0 -2 -9 -6 -20 -9 -11 -3 -18 -1 -14 4 5 9 34 13 34 5z m4 -102 c13 -34 7 -54 -18 -54 -42 0 -56 11 -56 41 0 26 3 29 34 29 22 0 36 -6 40 -16z m266 -34 c0 -5 -2 -10 -4 -10 -3 0 -8 5 -11 10 -3 6 -1 10 4 10 6 0 11 -4 11 -10z m-7 -48 c17 -15 24 -52 10 -52 -5 0 -23 9 -41 20 -28 17 -31 23 -22 40 11 21 20 19 53 -8z m-313 -13 c0 -5 -9 -9 -20 -9 -13 0 -18 5 -14 14 6 15 34 11 34 -5z m310 -85 c0 -2 -11 2 -25 8 -14 6 -25 15 -25 20 0 5 11 1 25 -8 14 -9 25 -18 25 -20z m-51 -14 c24 -12 24 -13 6 -26 -27 -20 -29 -19 -55 28 l-24 43 24 -16 c14 -9 36 -22 49 -29z m-196 -25 c17 -23 17 -25 -2 -35 -11 -5 -24 -10 -30 -10 -13 0 -42 55 -34 64 14 14 49 4 66 -19z m-133 -5 c14 -27 -9 -27 -41 0 l-24 19 27 1 c17 0 31 -7 38 -20z"
       id="path28" />
    <path
       d="M7850 1978 c-1327 -297 -1785 -400 -2335 -527 -2071 -477 -3085 -741 -3085 -802 0 -17 184 -6 354 21 71 11 134 20 140 19 6 0 -63 -22 -154 -47 -91 -26 -191 -58 -223 -71 -178 -72 92 -59 678 35 786 125 2594 471 4145 794 686 143 802 169 828 186 74 49 58 178 -27 214 -30 12 -30 12 -15 43 24 44 14 111 -22 148 -37 38 -62 37 -284 -13z"
       id="path30" />
  </g>
</svg>
